<?xml version="1.0" encoding="UTF-8" standalone="no"?>
<!-- Created with Inkscape (http://www.inkscape.org/) -->

<svg
   width="32.411373mm"
   height="27.948008mm"
   viewBox="0 0 32.411373 27.948008"
   version="1.1"
   id="svg1"
   xml:space="preserve"
   inkscape:version="1.4.1-rc (06eac75fbf, 2025-03-29)"
   sodipodi:docname="heart-paw.svg"
   xmlns:inkscape="http://www.inkscape.org/namespaces/inkscape"
   xmlns:sodipodi="http://sodipodi.sourceforge.net/DTD/sodipodi-0.dtd"
   xmlns="http://www.w3.org/2000/svg"
   xmlns:svg="http://www.w3.org/2000/svg"><sodipodi:namedview
     id="namedview1"
     pagecolor="#ffffff"
     bordercolor="#000000"
     borderopacity="0.25"
     inkscape:showpageshadow="2"
     inkscape:pageopacity="0.0"
     inkscape:pagecheckerboard="0"
     inkscape:deskcolor="#d1d1d1"
     inkscape:document-units="mm"
     inkscape:zoom="2.9754489"
     inkscape:cx="27.222783"
     inkscape:cy="56.63011"
     inkscape:window-width="1920"
     inkscape:window-height="1043"
     inkscape:window-x="0"
     inkscape:window-y="0"
     inkscape:window-maximized="1"
     inkscape:current-layer="layer1" /><defs
     id="defs1" /><g
     inkscape:label="Layer 1"
     inkscape:groupmode="layer"
     id="layer1"
     transform="translate(-46.527349,-93.841713)"><path
       style="opacity:1;fill:#ff0000"
       d="m 67.172268,121.65974 c -1.827932,-1.6163 -5.178505,-3.30589 -9.558824,-4.82021 -2.601746,-0.89946 -3.444341,-1.23599 -4.852941,-1.9383 -1.628827,-0.81211 -2.782274,-1.60711 -3.839361,-2.64625 -1.091274,-1.07274 -1.542465,-1.8669 -2.01949,-3.55459 -0.911979,-3.22654 -0.147229,-5.96522 2.182381,-7.81543 0.796215,-0.63236 1.531856,-1.023412 2.501576,-1.329782 0.773024,-0.24423 0.983753,-0.28719 1.807247,-0.36846 1.674224,-0.16523 3.570614,0.28112 4.768471,1.122342 0.446132,0.31331 1.070966,0.91339 1.228172,1.17952 0.05624,0.0952 0.118576,0.17309 0.138526,0.17309 0.01995,0 0.02414,-0.14637 0.0093,-0.32527 -0.01484,-0.1789 0.0053,-0.62228 0.04474,-0.98529 0.27663,-2.546032 1.684491,-4.513462 4.001969,-5.592612 0.574225,-0.267388 0.820584,-0.353248 1.735294,-0.604774 3.601458,-0.990325 6.398285,0.401728 7.677755,3.821414 0.21221,0.56719 0.50805,2.215952 0.3976,2.215952 -0.0164,0 -0.16298,-0.17868 -0.3258,-0.397062 -0.82029,-1.10025 -2.229778,-2.21215 -3.409455,-2.68962 -1.682815,-0.68112 -3.427225,-0.73104 -5.200154,-0.14882 -2.196713,0.72139 -3.764665,2.64188 -4.196672,5.140262 -0.04968,0.28732 -0.09033,0.65941 -0.09033,0.82685 v 0.30444 l -0.575765,-0.56215 c -0.66788,-0.65208 -1.337794,-1.06517 -2.201189,-1.35732 -0.4864,-0.16459 -0.644062,-0.18855 -1.432053,-0.21765 -0.772675,-0.0285 -0.963763,-0.016 -1.5,0.0982 -0.940914,0.20049 -2.172499,0.69496 -2.858174,1.14754 -1.236386,0.81608 -1.943455,1.7882 -2.290704,3.1494 -0.132051,0.51763 -0.147875,1.78408 -0.03014,2.41177 0.105636,0.56315 0.39639,1.55513 0.603453,2.05882 0.454064,1.10454 0.733371,1.51746 1.633039,2.41424 1.134161,1.13052 2.286363,1.89292 3.975057,2.63024 0.726157,0.31706 1.354509,0.52196 2.656349,0.86624 2.242122,0.59294 4.369595,1.49678 6.342952,2.69475 0.466398,0.28314 1.533948,1.07583 1.857852,1.37952 l 0.391796,0.36734 0.09985,-0.42617 c 0.182532,-0.77903 0.725873,-2.11891 0.980542,-2.41801 0.03136,-0.0368 0.09756,-0.11991 0.147111,-0.18462 0.0877,-0.11453 0.08941,-0.11376 0.06429,0.0294 -0.01419,0.0809 -0.132995,0.6103 -0.264013,1.17647 -0.300115,1.2969 -0.36281,1.68934 -0.412914,2.58465 l -0.04029,0.71992 z"
       id="path1" /><path
       id="path2"
       style="opacity:1;fill:#000000"
       d="m 71.172268,117.37509 c -0.210294,-0.0769 -0.567647,-0.23286 -0.794118,-0.3466 -0.977574,-0.49098 -2.70782,-1.10645 -3.911765,-1.39146 -0.478643,-0.11331 -0.981678,-0.18729 -1.441176,-0.21196 -0.388235,-0.0208 -0.902407,-0.0779 -1.142603,-0.12676 -0.862666,-0.17555 -1.790669,-0.78477 -2.072529,-1.36059 -0.109365,-0.22343 -0.135628,-0.37225 -0.133564,-0.75686 0.0023,-0.42166 0.02616,-0.52665 0.200359,-0.88051 0.312044,-0.63385 0.872357,-1.15165 1.706612,-1.57712 0.371757,-0.1896 0.782051,-0.41156 0.911764,-0.49324 0.388193,-0.24445 0.995402,-0.74836 1.249161,-1.03665 0.24394,-0.27713 0.332007,-0.40413 1.075305,-1.55073 0.465955,-0.71878 0.637192,-0.89782 1.123727,-1.17495 0.723425,-0.41206 1.673647,-0.54826 2.36392,-0.33882 0.936098,0.28403 1.708942,1.01619 2.050472,1.94253 0.11899,0.32275 0.13071,0.46619 0.13705,1.67647 0.009,1.71332 0.0432,1.85231 0.71227,2.88893 0.36394,0.56389 0.82887,1.48795 0.94053,1.86932 0.11688,0.39917 0.0868,1.22197 -0.0624,1.70322 -0.13622,0.43967 -0.47438,0.7868 -1.0258,1.05301 -0.39465,0.19053 -0.50714,0.21751 -0.9755,0.23396 -0.44151,0.0155 -0.592893,-0.005 -0.911765,-0.12119 z m 3.772455,-4.57299 c -0.94758,-0.18622 -1.60122,-0.96481 -1.64686,-1.96167 -0.026,-0.56748 0.0599,-0.9874 0.31364,-1.53376 0.52554,-1.13157 1.63604,-1.99218 2.78711,-2.15995 0.8151,-0.1188 1.43565,0.0729 1.95208,0.60313 0.7452,0.76507 0.78491,2.00396 0.10317,3.21896 -0.2995,0.53377 -0.99978,1.19534 -1.56732,1.4807 -0.74102,0.37257 -1.31231,0.47631 -1.94182,0.35259 z M 62.87815,109.40838 c -0.41696,-0.16046 -0.596617,-0.2756 -0.907118,-0.58136 -0.416972,-0.41061 -0.720479,-0.91201 -0.900699,-1.48796 -0.217701,-0.69574 -0.228308,-1.64725 -0.02556,-2.29281 0.236847,-0.75414 0.65684,-1.29323 1.273083,-1.63408 0.267673,-0.14805 0.351141,-0.16353 0.883824,-0.16391 0.523942,-3.7e-4 0.624447,0.0174 0.919553,0.16229 0.359828,0.17671 0.865269,0.63478 1.12874,1.02295 0.09127,0.13447 0.242953,0.43373 0.337081,0.66502 0.537431,1.32063 0.310383,2.86272 -0.553161,3.75703 -0.447448,0.46339 -0.778611,0.61501 -1.391037,0.63686 -0.367655,0.0131 -0.570065,-0.009 -0.764706,-0.084 z m 10.221893,-2.54306 c -0.62355,-0.1088 -1.2766,-0.65839 -1.52726,-1.28529 -0.192933,-0.48253 -0.192089,-1.51936 0.0017,-2.06748 0.4281,-1.21098 1.4361,-2.20189 2.50957,-2.46705 0.45754,-0.11302 1.06868,-0.09 1.45562,0.0547 0.427,0.15977 0.84999,0.56411 1.07667,1.02922 0.14739,0.30244 0.17475,0.43606 0.19362,0.94566 0.028,0.75717 -0.0537,1.14009 -0.38461,1.80102 -0.66853,1.33545 -2.11453,2.20045 -3.3253,1.98918 z m -5.519421,-1.63674 c -0.399189,-0.14648 -0.774831,-0.38694 -1.008476,-0.64555 -0.976072,-1.0804 -1.184649,-2.83882 -0.500185,-4.21683 0.250665,-0.504648 0.856751,-1.093118 1.29369,-1.256088 1.25703,-0.46883 2.5811,0.34762 3.077773,1.897828 0.193464,0.60383 0.21978,1.61956 0.05643,2.178 -0.133011,0.45473 -0.407117,0.99807 -0.661687,1.31164 -0.554616,0.68314 -1.528541,0.9985 -2.257545,0.731 z" /></g></svg>
