<?xml version="1.0" encoding="UTF-8" standalone="no"?>
<!-- Created with Inkscape (http://www.inkscape.org/) -->

<svg
   width="55.193478mm"
   height="26.458334mm"
   viewBox="0 0 55.193479 26.458334"
   version="1.1"
   id="svg1"
   xml:space="preserve"
   inkscape:version="1.4.1-rc (06eac75fbf, 2025-03-29)"
   sodipodi:docname="bugulug.svg"
   xmlns:inkscape="http://www.inkscape.org/namespaces/inkscape"
   xmlns:sodipodi="http://sodipodi.sourceforge.net/DTD/sodipodi-0.dtd"
   xmlns="http://www.w3.org/2000/svg"
   xmlns:svg="http://www.w3.org/2000/svg"><sodipodi:namedview
     id="namedview1"
     pagecolor="#ffffff"
     bordercolor="#000000"
     borderopacity="0.25"
     inkscape:showpageshadow="2"
     inkscape:pageopacity="0.0"
     inkscape:pagecheckerboard="0"
     inkscape:deskcolor="#d1d1d1"
     inkscape:document-units="mm"
     inkscape:zoom="0.50583233"
     inkscape:cx="25.700216"
     inkscape:cy="240.19817"
     inkscape:window-width="1920"
     inkscape:window-height="1011"
     inkscape:window-x="1920"
     inkscape:window-y="32"
     inkscape:window-maximized="1"
     inkscape:current-layer="layer1" /><defs
     id="defs1" /><g
     inkscape:label="Layer 1"
     inkscape:groupmode="layer"
     id="layer1"
     transform="translate(-57.673287,-101.53541)"><g
       id="g36"
       transform="matrix(0.50039935,0,0,0.50039935,28.813612,50.727155)"
       style="fill:#666666"><path
         id="path24"
         style="fill:#666666;fill-opacity:1"
         d="m 145.21799,141.70698 c -2.59877,-1.43835 -3.13544,-4.5888 -1.09609,-6.43439 1.28567,-1.16352 2.8475,0.5169 1.65761,1.78347 -0.30884,0.32875 -0.56152,0.83413 -0.56152,1.12306 0,0.51889 0.45612,1.16035 0.82508,1.16035 0.43814,0 1.29832,-1.90593 2.08696,-4.62413 1.01802,-3.50876 1.49618,-4.47851 2.82022,-5.71967 2.18305,-2.04638 4.503,-2.75883 6.88614,-2.11471 1.33087,0.35971 2.90072,2.04553 3.15197,3.3848 0.23435,1.24917 -0.39269,2.7243 -1.46525,3.4471 -1.08618,0.73198 -1.45689,0.74776 -2.11465,0.09 -0.58434,-0.58433 -0.48246,-1.34571 0.27132,-2.02788 0.64655,-0.58512 0.63832,-1.0756 -0.024,-1.43006 -1.22092,-0.65341 -3.08615,1.14145 -4.07811,3.92427 -1.29651,3.63719 -2.39041,5.67507 -3.6803,6.85623 -1.09525,1.00293 -1.36447,1.12283 -2.49067,1.10929 -0.72795,-0.009 -1.65485,-0.23224 -2.18872,-0.52772 z m -79.208509,-3.1844 c -1.14536,-1.75627 -2.35308,-3.68993 -2.68382,-4.29702 -0.33075,-0.60709 -1.20907,-2.17536 -1.95182,-3.48505 -0.74276,-1.30969 -1.35228,-2.50031 -1.35449,-2.64583 -0.002,-0.14552 -0.53826,-1.37655 -1.19123,-2.73562 -1.3735,-2.85875 -1.486,-3.80328 -0.5278,-4.43112 0.36268,-0.23764 0.82364,-0.36905 1.02436,-0.29203 0.2088,0.0801 0.61695,-0.20083 0.95399,-0.65669 1.22871,-1.66192 3.77122,-2.00815 6.22277,-0.8474 3.02499,1.43226 4.53372,4.54014 3.45609,7.11927 -0.38337,0.91755 -0.38337,0.91755 0.66996,0.91755 1.47514,0 2.66621,0.56469 4.18242,1.98293 1.66243,1.55501 2.14558,2.58607 2.14558,4.5788 0,1.39616 -0.11977,1.76514 -0.99617,3.0689 -1.01899,1.51588 -2.03412,2.23779 -3.95672,2.81381 -0.68821,0.20619 -1.18271,0.55211 -1.36677,0.95609 -0.28657,0.62895 -1.24487,1.1538 -2.09809,1.14909 -0.27707,-0.002 -1.23397,-1.21103 -2.52826,-3.19568 z m 5.91893,-2.09353 c 1.69058,-1.69058 -0.70423,-6.61007 -3.21951,-6.61359 -1.3958,-0.002 -1.51266,0.17913 -0.90555,1.40332 0.30425,0.6135 0.77691,1.64983 1.05036,2.30297 0.71356,1.70433 1.82941,3.43544 2.2148,3.43599 0.1819,2.7e-4 0.56885,-0.23765 0.8599,-0.52869 z m -4.50723,-8.71385 c 0.49562,-0.92608 0.28765,-2.07304 -0.66624,-3.67435 -1.21649,-2.04212 -1.74126,-2.49257 -2.94747,-2.53003 -1.2506,-0.0388 -1.47312,0.63886 -0.54147,1.64908 0.35579,0.3858 1.28808,1.68371 2.07176,2.88426 0.78367,1.20055 1.51141,2.18281 1.61719,2.18281 0.10579,0 0.31559,-0.2303 0.46623,-0.51177 z m 69.991599,7.72571 c -2.80815,-0.5555 -4.89479,-2.48206 -4.89479,-4.51929 0,-0.91554 0.90373,-2.16549 1.56569,-2.16549 0.25793,0 0.66414,0.21568 0.90269,0.47927 0.36951,0.40831 0.38538,0.6076 0.10716,1.34599 -0.29924,0.79414 -0.27428,0.90909 0.29804,1.37281 0.76712,0.62156 2.08033,0.65273 2.95452,0.0701 1.02523,-0.68326 2.90315,-2.55228 2.90315,-2.88938 0,-0.17554 -0.62923,-0.36972 -1.48393,-0.45793 -1.63317,-0.16856 -3.23058,-1.04994 -3.98236,-2.1973 -0.73829,-1.12677 -0.16971,-3.10751 1.62171,-5.64956 2.09204,-2.96861 3.49109,-4.05514 5.67018,-4.40359 2.484,-0.39721 5.0493,1.3037 5.81358,3.85466 0.324,1.0814 0.324,1.0814 1.6146,0.9102 1.15616,-0.15337 1.36232,-0.0995 1.97916,0.51735 0.68855,0.68856 0.68855,0.68856 0.12062,1.81744 -0.54618,1.08564 -4.53648,6.18104 -6.40466,8.17842 -2.01842,2.15802 -6.69965,4.14888 -8.78536,3.73628 z m 7.23667,-10.1905 c 1.87936,-2.51956 2.38847,-4.21907 1.48781,-4.96656 -1.39039,-1.15392 -6.32886,4.54144 -5.15957,5.95035 0.20763,0.25019 0.77627,0.40527 1.486,0.40527 1.07893,0 1.2134,-0.0855 2.18576,-1.38906 z m -65.444999,7.16701 c -2.15535,-1.18682 -5.16303,-5.78413 -6.37653,-9.7467 -0.20054,-0.65484 -0.36591,-1.79725 -0.36748,-2.53868 -0.003,-1.5758 0.47137,-2.1623 1.94357,-2.40121 1.42348,-0.231 2.06283,0.33778 2.91827,2.59613 1.32537,3.49897 1.78805,4.56407 2.88582,6.64324 0.97366,1.84411 1.50989,2.48664 1.50989,1.80921 0,-1.21108 -0.9881,-4.75327 -2.00975,-7.20466 -1.02385,-2.45669 -1.25652,-3.31203 -1.27497,-4.68715 -0.0216,-1.6066 0.0185,-1.71641 0.89347,-2.44739 1.31483,-1.09849 2.21296,-1.02523 2.78141,0.22687 1.68784,3.71772 4.1382,8.23123 5.02202,9.25044 0.5756,0.66379 1.42368,1.36446 1.88462,1.55705 1.60808,0.6719 1.24882,2.14259 -0.66334,2.71548 -1.17867,0.35314 -2.65548,0.10254 -3.59893,-0.61071 -0.82245,-0.62178 -0.9178,-0.50653 -0.91885,1.11065 -6.8e-4,1.04183 -0.16378,1.78834 -0.51747,2.3684 -0.87721,1.43867 -2.80809,2.07687 -4.11175,1.35903 z m 13.89978,-2.68403 c -0.96873,-0.33366 -2.2006,-1.84878 -2.06703,-2.54233 0.0425,-0.22061 0.39568,-0.57985 0.78489,-0.7983 0.64613,-0.36266 0.75523,-0.35414 1.2549,0.0981 0.30099,0.27239 0.54725,0.65539 0.54725,0.85112 0,0.4166 0.88111,0.46933 1.58124,0.0946 0.26847,-0.14368 0.7519,-0.68804 1.0743,-1.20968 0.61879,-1.00123 0.6139,-1.93937 -0.0218,-4.17101 -0.28818,-1.01172 -0.28818,-1.01172 -1.56204,0.17983 -2.2387,2.09404 -4.6619,2.25961 -6.14425,0.41983 -0.82519,-1.02418 -2.6004,-5.72264 -2.6004,-6.88252 0,-0.39571 0.23515,-1.4808 0.52255,-2.4113 0.55817,-1.80714 1.44335,-2.88565 2.78474,-3.39293 1.11392,-0.42125 3.32312,-0.37369 4.44661,0.0957 0.9482,0.39619 0.9482,0.39619 1.47153,-0.49079 0.65553,-1.11105 1.69955,-1.81485 2.37443,-1.60065 0.73693,0.23389 1.50566,2.22122 2.589109,6.6934 1.26565,5.22427 1.33996,6.28268 0.64557,9.19487 -0.874429,3.66724 -2.179409,5.19238 -5.013669,5.85953 -1.7428,0.41024 -1.51628,0.40917 -2.66796,0.0125 z m 1.64616,-10.9309 c 0.65882,-0.92595 0.66893,-0.99859 0.30394,-2.18282 -0.20766,-0.67374 -0.45347,-1.52265 -0.54626,-1.88645 -0.28107,-1.10207 -1.64969,-2.64583 -2.34566,-2.64583 -0.85738,0 -1.04249,0.40933 -1.00284,2.2176 0.0639,2.9158 1.15319,5.45531 2.33988,5.45531 0.3525,0 0.82907,-0.3649 1.25094,-0.95781 z m 35.675949,8.48957 c -0.75491,-0.68202 -1.11811,-1.28205 -1.3427,-2.21826 -0.30787,-1.28335 -0.30787,-1.28335 -1.63835,-0.38801 -1.50554,1.01315 -2.87319,1.1673 -4.30951,0.48572 -1.08175,-0.51332 -1.46571,-1.34025 -1.46571,-3.15665 0,-2.739 2.54226,-8.40125 4.88374,-10.87733 1.54045,-1.629 2.19372,-1.77877 3.60995,-0.82757 0.71547,0.48055 0.91598,0.8079 0.98208,1.60338 0.0704,0.84693 -0.16513,1.38269 -1.54243,3.5088 -1.99436,3.07864 -4.06658,7.33827 -3.64132,7.48506 0.51283,0.17701 2.74315,-2.60447 4.60597,-5.7442 1.88595,-3.17872 3.67005,-5.07561 4.7738,-5.07561 0.90215,0 2.44668,0.69546 2.63512,1.18652 0.0932,0.243 -0.56954,1.84183 -1.59015,3.8359 -2.76564,5.40352 -3.6093,7.9923 -3.06831,9.41522 0.68858,1.81108 -1.18619,2.30828 -2.89218,0.76703 z m -13.52258,-3.50456 c -0.88915,-0.88915 -1.02068,-1.19405 -1.18763,-2.75304 -0.23807,-2.22303 0.13953,-4.70069 1.50469,-9.87311 0.37798,-1.4321 1.97935,-5.31184 2.73019,-6.61459 0.33549,-0.58208 1.06315,-1.51001 1.61703,-2.06207 0.95309,-0.94993 1.08562,-0.99956 2.47278,-0.92604 1.30984,0.0694 1.47506,0.14375 1.55365,0.6989 0.0491,0.34691 -0.13748,0.87263 -0.42258,1.19062 -0.584,0.65138 -1.91432,3.28391 -1.91432,3.7882 0,0.18521 -0.31096,1.26316 -0.69102,2.39545 -0.70941,2.11349 -1.3204,4.70521 -2.12379,9.00879 -0.38778,2.07723 -0.40711,2.64988 -0.12641,3.7451 0.44647,1.74203 0.0655,2.40168 -1.38689,2.40168 -0.83401,0 -1.21277,-0.18696 -2.0257,-0.99989 z m 40.35277,0.63242 c -0.91646,-0.40035 -3.89483,-3.49338 -4.5107,-4.68433 -1.05241,-2.03513 0.99925,-4.09634 4.38273,-4.40314 1.78708,-0.16205 3.1208,0.22229 3.99167,1.15028 0.55698,0.59352 0.63422,0.9265 0.63422,2.7344 0,1.91736 -0.0635,2.15182 -0.92605,3.41784 -0.50932,0.7476 -1.30122,1.53773 -1.75977,1.75584 -0.97909,0.46571 -0.81858,0.46313 -1.8121,0.0291 z m -1.45521,-5.17564 c 0,-0.71628 0.1457,-1.13005 0.46302,-1.31487 0.37146,-0.21635 0.25636,-0.27127 -0.58208,-0.27773 -0.81286,-0.006 -0.97455,0.0625 -0.72761,0.30946 0.17463,0.17462 0.3175,0.76994 0.3175,1.32291 0,0.55298 0.11907,1.00542 0.26459,1.00542 0.14552,0 0.26458,-0.47033 0.26458,-1.04519 z m 2.29382,-0.0311 c 0.33668,1.25279 0.77965,1.29453 1.01502,0.0957 0.19704,-1.0037 0.19704,-1.0037 0.49462,0.0123 0.16367,0.55881 0.3703,0.9425 0.45917,0.85265 0.17608,-0.178 -0.13443,-2.19427 -0.37496,-2.4348 -0.28252,-0.28252 -0.6452,0.16224 -0.83475,1.02367 -0.19043,0.8654 -0.19043,0.8654 -0.4972,0.0245 -0.16872,-0.4625 -0.40253,-0.9353 -0.51959,-1.05068 -0.352,-0.34694 -0.70665,0.49984 -0.68142,1.627 0.0237,1.05833 0.0237,1.05833 0.35939,0 0.33569,-1.05833 0.33569,-1.05833 0.57972,-0.15029 z m 4.48874,4.23213 c -0.93975,-0.73921 -0.9217,-1.83779 0.048,-2.92312 0.61564,-0.68902 0.94154,-0.834 1.8748,-0.834 1.32399,0 2.04568,0.58016 2.29933,1.84841 0.14263,0.71316 0.0415,0.97658 -0.63467,1.65273 -0.99569,0.99568 -2.50978,1.10372 -3.5875,0.25598 z m -58.55932,0.0287 c -1.28959,-0.54611 -1.53678,-1.41822 -1.53678,-5.42177 0,-4.21725 0.34892,-5.77512 1.77835,-7.94006 1.185,-1.79473 2.32958,-2.52262 3.96671,-2.52262 0.71565,0 1.53627,0.12581 1.8236,0.27959 0.40688,0.21775 0.71713,0.15924 1.4029,-0.26459 1.11641,-0.68998 2.42757,-0.71536 2.78161,-0.0539 0.17373,0.32463 0.17255,1.06747 -0.003,2.19822 -0.36901,2.37023 -0.16498,10.10649 0.30486,11.55969 0.36045,1.11485 0.35161,1.16805 -0.27878,1.67852 -0.85314,0.69083 -2.20088,0.48637 -3.2181,-0.48819 -0.41385,-0.39649 -0.75245,-0.80993 -0.75245,-0.91875 0,-0.10882 -0.12339,-0.52239 -0.2742,-0.91904 -0.27419,-0.72119 -0.27419,-0.72119 -1.18199,0.73012 -0.49929,0.79822 -1.21321,1.59046 -1.5865,1.76054 -0.9848,0.44871 -2.55633,0.60568 -3.22574,0.32219 z m 4.45324,-6.82335 c 0.44186,-0.98715 0.85058,-2.53183 1.0133,-3.82952 0.35638,-2.84218 0.35573,-2.85033 -0.22772,-2.85033 -0.33746,0 -0.63932,0.3471 -0.92691,1.06586 -0.49086,1.22677 -1.22699,5.80405 -1.20057,7.46521 0.0167,1.04968 0.0377,1.08126 0.30961,0.46476 0.16044,-0.3638 0.62497,-1.40599 1.03229,-2.31598 z m 54.85212,1.66655 c -1.22923,-1.22923 -0.73717,-3.10531 1.03504,-3.94628 1.98181,-0.94044 3.60719,-0.20293 3.60719,1.63673 0,1.22701 -0.59451,2.10899 -1.74587,2.59006 -1.28884,0.53851 -2.1619,0.45395 -2.89636,-0.28051 z m -3.22071,-3.63849 c -0.88086,-0.42527 -1.24887,-1.80149 -0.78111,-2.92101 0.84239,-2.01612 3.2797,-2.76779 4.39152,-1.35434 1.06543,1.35448 0.46205,3.28453 -1.31394,4.20293 -0.87435,0.45215 -1.47099,0.47096 -2.29647,0.0724 z m -5.41252,-0.22008 c -0.24375,-0.14222 -0.57891,-0.66985 -0.7448,-1.17251 -0.24974,-0.75671 -0.22256,-1.08055 0.15804,-1.88259 0.50003,-1.05375 1.88843,-1.83839 2.76224,-1.56105 0.80767,0.25634 1.57498,1.44183 1.57498,2.43331 0,1.77844 -2.22455,3.07316 -3.75046,2.18284 z" /><path
         style="fill:#666666"
         d="m 135.82528,152.12623 c -2.18996,-0.48189 -2.77813,-1.32651 -2.77813,-3.98946 0,-1.03657 -0.13322,-1.94553 -0.31124,-2.12355 -0.23861,-0.23861 -0.20774,-0.42563 0.13229,-0.80135 0.60753,-0.67132 0.56388,-1.94759 -0.0856,-2.50372 -1.12789,-0.96573 -0.51571,-1.76491 2.16848,-2.83085 3.32508,-1.32045 5.50444,-1.33303 5.50444,-0.0318 0,0.69761 -0.40442,0.93849 -2.71198,1.61536 -2.05052,0.60148 -2.05052,0.60148 -2.05052,1.78405 0,1.18256 0,1.18256 1.40944,1.00647 1.17337,-0.14661 1.51644,-0.0895 2.04823,0.34115 0.61726,0.49983 0.62282,0.53488 0.16496,1.0408 -0.33998,0.37568 -0.9169,0.5556 -2.04265,0.63703 -0.86287,0.0624 -1.63819,0.18282 -1.72295,0.26758 -0.0847,0.0848 -0.2217,0.80906 -0.30432,1.60957 -0.13671,1.32461 -0.0956,1.48468 0.45685,1.78036 0.3871,0.20717 1.2168,0.27595 2.28984,0.18982 1.49269,-0.11982 1.71497,-0.0749 1.96786,0.39763 0.20387,0.38094 0.20358,0.71161 -0.001,1.16069 -0.25938,0.56928 -0.44126,0.62512 -1.94545,0.5973 -0.91262,-0.0169 -1.89744,-0.0831 -2.18848,-0.14713 z"
         id="path23" /><path
         style="fill:#666666"
         d="m 97.475981,152.21563 c -0.72623,-0.53103 -0.91164,-2.48454 -0.6571,-6.92306 0.12518,-2.18281 0.2315,-4.23664 0.23627,-4.56406 0.008,-0.54709 -0.11061,-0.59531 -1.46393,-0.59531 -0.80993,0 -1.7046,-0.12416 -1.98815,-0.27592 -0.28355,-0.15175 -0.49975,-0.18151 -0.48044,-0.0661 0.11323,0.67657 -0.24274,0.92122 -2.2518,1.54761 -2.31729,0.7225 -2.52582,0.92562 -2.53465,2.4689 -0.004,0.61092 0.0447,0.62606 1.46232,0.45945 1.50191,-0.17652 2.5063,0.10647 2.49877,0.70405 -0.009,0.75623 -0.55863,1.08395 -2.12576,1.26873 -0.9047,0.10668 -1.74627,0.35389 -1.87016,0.54937 -0.12389,0.19547 -0.22708,0.97509 -0.22931,1.73248 -0.004,1.37201 -5.6e-4,1.37773 0.9462,1.55534 0.52263,0.0981 1.52454,0.11025 2.22645,0.0271 1.368,-0.16202 1.5858,0.012 1.5858,1.26713 0,0.75361 -0.44786,0.93877 -2.20445,0.91142 -3.569,-0.0556 -4.72065,-0.97935 -4.82312,-3.86879 -0.0351,-0.98915 -0.14821,-2.00778 -0.2514,-2.26362 -0.10561,-0.26183 -10e-4,-0.85759 0.23838,-1.36291 0.56518,-1.19103 0.53717,-1.66569 -0.11902,-2.01688 -0.38395,-0.20548 -0.52079,-0.50145 -0.46302,-1.00149 0.067,-0.57965 0.39168,-0.86223 1.7708,-1.54101 1.85023,-0.91066 4.51264,-1.58215 5.21082,-1.31423 0.26379,0.10123 0.56869,-7.4e-4 0.75205,-0.25151 0.38327,-0.52414 3.81445,-1.28023 5.53816,-1.22038 0.70596,0.0245 2.031939,-0.12899 2.946599,-0.34111 1.8411,-0.42698 3.03987,-0.15039 3.0438,0.70228 0.003,0.71247 -0.99832,1.22752 -3.06113,1.57414 -1.914779,0.32174 -1.914779,0.32174 -2.075599,1.66333 -0.0884,0.73788 -0.21985,3.52794 -0.29201,6.20015 -0.0722,2.6722 -0.19645,4.96415 -0.27622,5.09323 -0.20843,0.33725 -0.73183,0.28922 -1.28915,-0.11831 z"
         id="path22" /><path
         style="fill:#666666"
         d="m 124.51642,152.644 c -0.38701,-0.42764 -0.40692,-1.05251 -0.19212,-6.03091 0.13179,-3.05462 0.24335,-5.9957 0.24791,-6.53573 0.0117,-1.38716 0.80247,-2.06083 2.41906,-2.06083 1.04388,0 1.3873,0.13462 2.06032,0.80765 1.68592,1.68592 1.58398,3.98518 -0.25836,5.82753 -1.04457,1.04456 -1.04457,1.04456 1.46115,3.52999 2.50361,2.48334 3.22729,3.68472 2.49785,4.14668 -0.78893,0.49964 -1.33827,0.15051 -3.57447,-2.27174 -1.59641,-1.72923 -2.38416,-2.4094 -2.52806,-2.18281 -0.11496,0.18104 -0.22494,1.04353 -0.24438,1.91666 -0.0523,2.34727 -0.28144,3.16186 -0.91509,3.25279 -0.29814,0.0428 -0.73635,-0.13689 -0.97381,-0.39928 z m 3.21749,-9.96234 c 0.862,-1.39475 0.60826,-2.54846 -0.56051,-2.54846 -0.40976,0 -0.47625,0.24008 -0.47625,1.71979 0,0.94589 0.10936,1.71979 0.24301,1.71979 0.13365,0 0.49084,-0.40101 0.79375,-0.89112 z"
         id="path21" /><path
         style="fill:#666666"
         d="m 114.84382,153.04487 c -0.44226,-0.44226 -0.40006,-0.95071 0.22819,-2.74994 0.32869,-0.9413 0.49221,-1.91042 0.41119,-2.43698 -0.0952,-0.61894 0.003,-1.01125 0.33482,-1.34354 0.25813,-0.25813 0.85893,-1.8888 1.33511,-3.62371 1.14292,-4.16413 1.45118,-4.87417 2.11609,-4.87417 0.77491,0 1.34233,1.03977 1.6139,2.95743 0.13049,0.92142 0.67344,3.34161 1.20656,5.37821 1.1755,4.49064 1.22474,5.09094 0.45968,5.60425 -0.5194,0.34848 -0.62846,0.33385 -1.11141,-0.14909 -0.29984,-0.29985 -0.68379,-1.25349 -0.8725,-2.16714 -0.18535,-0.89741 -0.48979,-1.69028 -0.67652,-1.76194 -0.18673,-0.0716 -0.74811,-0.0536 -1.24751,0.0401 -0.88987,0.16694 -0.91683,0.21111 -1.35019,2.21189 -0.24321,1.12285 -0.61036,2.30943 -0.8159,2.63685 -0.40905,0.65161 -1.13423,0.77509 -1.63151,0.27782 z m 4.68321,-7.68615 c -0.0145,-0.32742 -0.11117,-0.89297 -0.21482,-1.25677 -0.18844,-0.66146 -0.18844,-0.66146 -0.38306,0.13229 -0.10705,0.43656 -0.25653,1.00211 -0.33218,1.25677 -0.0998,0.33602 0.0125,0.46302 0.40944,0.46302 0.39868,0 0.53984,-0.16141 0.52062,-0.59531 z"
         id="path20" /><path
         style="fill:#666666"
         d="m 78.958761,153.21117 c -0.4509,-0.45089 -0.45137,-0.46062 -0.41631,-8.50111 0.0144,-3.31241 -0.0778,-4.97411 -0.29557,-5.32277 -0.88146,-1.41144 1.02199,-1.83429 3.33882,-0.74173 2.1561,1.01677 3.24159,2.61211 2.88874,4.24558 -0.31802,1.47225 -1.38863,3.24297 -2.61164,4.31951 -1.20314,1.05905 -1.20314,1.05905 -1.20314,3.2259 0,2.92685 -0.58857,3.88696 -1.7009,2.77462 z m 3.28704,-11.15295 c 0.001,-0.68096 -0.15881,-0.93592 -0.79239,-1.26356 -0.79375,-0.41047 -0.79375,-0.41047 -0.79084,0.8531 0.002,0.69496 0.0791,1.72463 0.17217,2.28817 0.16926,1.0246 0.16926,1.0246 0.78948,0 0.34112,-0.56354 0.62083,-1.4085 0.62158,-1.87771 z"
         id="path19" /><path
         style="fill:#666666"
         d="m 111.16325,153.49699 c -2.85058,-1.9197 -3.98182,-4.46982 -3.72532,-8.39794 0.14439,-2.21128 0.81436,-3.76875 2.2878,-5.31839 1.16501,-1.22526 2.13257,-1.76413 3.16756,-1.76413 1.83864,0 1.69945,1.77519 -0.18343,2.33932 -2.62151,0.78542 -3.94926,4.92707 -2.67305,8.33804 0.50485,1.34934 1.80608,2.81824 3.6668,4.13931 0.40131,0.28492 0.51285,0.56481 0.39541,0.99219 -0.2422,0.88141 -1.31799,0.76107 -2.93577,-0.3284 z"
         id="path1" /></g></g></svg>
