<?xml version="1.0" encoding="UTF-8" standalone="no"?>
<!-- Created with Inkscape (http://www.inkscape.org/) -->

<svg
   version="1.1"
   id="svg1"
   width="336.1702"
   height="100"
   viewBox="0 0 336.1702 100"
   sodipodi:docname="heiniger.svg"
   inkscape:version="1.4.1-rc (06eac75fbf, 2025-03-29)"
   xmlns:inkscape="http://www.inkscape.org/namespaces/inkscape"
   xmlns:sodipodi="http://sodipodi.sourceforge.net/DTD/sodipodi-0.dtd"
   xmlns="http://www.w3.org/2000/svg"
   xmlns:svg="http://www.w3.org/2000/svg">
  <defs
     id="defs1" />
  <sodipodi:namedview
     id="namedview1"
     pagecolor="#ffffff"
     bordercolor="#000000"
     borderopacity="0.25"
     inkscape:showpageshadow="2"
     inkscape:pageopacity="0.0"
     inkscape:pagecheckerboard="0"
     inkscape:deskcolor="#d1d1d1"
     inkscape:zoom="0.92597317"
     inkscape:cx="98.274986"
     inkscape:cy="83.69573"
     inkscape:window-width="1920"
     inkscape:window-height="1011"
     inkscape:window-x="1920"
     inkscape:window-y="32"
     inkscape:window-maximized="1"
     inkscape:current-layer="g1" />
  <g
     inkscape:groupmode="layer"
     inkscape:label="Image"
     id="g1"
     transform="translate(13.534385,24.347863)">
    <path
       style="fill:#666666;fill-opacity:1;stroke-width:1.31915"
       d="m -12.115944,74.233696 -1.418441,-1.418441 V 30.882628 -11.049986 l 1.329794,-6.648932 1.329781,-6.648945 H 155.8805 322.6358 v 48.589302 48.589303 l -96.09396,1.410697 -96.09396,1.410698 H 59.875186 -10.697503 Z m 232.374754,-13.212871 5.06981,-3.898389 1.05195,-10.947919 1.05196,-10.947919 1.32504,0.01346 1.32505,0.01346 3.63548,6.388769 3.63548,6.388757 5.93898,2.280399 5.93899,2.280412 7.17878,-1.144862 7.17878,-1.144877 3.99143,-3.612185 3.99143,-3.612199 v -1.797894 -1.797894 h -3.57235 -3.57234 l -6.92588,2.50443 -6.92587,2.50443 -3.33157,-2.764962 -3.33156,-2.764949 V 37.093757 35.22662 h 14.89361 14.89362 V 30.865624 26.50465 l -3.09115,-5.97763 -3.09115,-5.97763 -6.66117,-2.759145 -6.66118,-2.759145 -7.76683,1.92754 -7.76684,1.927541 -4.28935,6.83294 -4.28934,6.832926 -1.59575,0.08192 -1.59575,0.08192 V 19.18385 11.651813 l -9.04255,0.204389 -9.04256,0.204376 -6.78864,-1.405936 -6.78864,-1.4059483 -5.4454,5.4453933 -5.44539,5.445394 v 7.683394 7.683396 l 2.44618,4.647361 2.44617,4.647361 2.34106,1.563165 2.34105,1.563165 5.99094,0.03258 5.99094,0.03258 4.11544,-2.202517 4.11544,-2.202517 v 3.092323 3.092335 l -1.29146,3.365505 -1.29147,3.365505 h -6.15533 -6.15535 v -2.127656 -2.127668 h -7.52167 -7.52166 l 2.3416,4.37534 2.34161,4.375326 4.64814,1.872782 4.64815,1.872783 8.51064,0.08759 8.51063,0.08759 z m -20.92047,-24.60173 -2.54192,-3.062826 0.68565,-5.979728 0.68565,-5.979727 4.90435,-0.695244 4.90434,-0.695231 3.07437,2.551497 3.07438,2.551511 v 4.633101 4.633088 l -2.55318,2.553199 -2.5532,2.553186 h -3.56926 -3.56926 z m 45.0553,-12.2107 0.83587,-2.50757 3.59676,-2.268778 3.59676,-2.268777 3.59677,2.268777 3.59676,2.268778 0.83587,2.50757 0.83585,2.50757 h -8.86525 -8.86524 z M 86.193025,49.89643 l 6.745387,-2.351462 2.157606,-4.031517 2.157605,-4.03153 H 91.221318 85.189013 L 82.7916,41.879329 80.394188,44.27675 75.153944,42.961533 69.9137,41.646315 68.681963,38.436456 67.450226,35.226598 H 83.568531 99.686837 L 98.2122,31.503195 96.737563,27.779792 95.92295,23.764989 95.108339,19.750187 91.558701,15.827882 88.009063,11.905578 80.8189,10.556696 73.628737,9.2078133 67.18088,11.878601 l -6.447857,2.670789 -3.145791,6.083294 -3.145791,6.083281 h -2.07302 -2.073022 v -7.446806 -7.446806 h -7.446807 -7.446808 v 7.446806 7.446806 H 26.891147 18.38051 V 19.269159 11.822353 H 10.933701 3.4868952 v 19.148935 19.148935 h 7.4468058 7.446809 v -7.446806 -7.446819 h 8.510637 8.510637 v 7.446819 7.446806 h 7.446808 7.446807 v -7.446806 -7.446819 h 2.173274 2.173274 l 2.24373,4.924462 2.243731,4.924448 5.689378,3.529567 5.689378,3.529568 4.469736,0.05659 4.469738,0.05659 z m -17.549189,-26.290952 1.193609,-3.1105 3.759024,-1.193065 3.759024,-1.193077 3.491228,1.339714 3.491228,1.339714 v 2.96385 2.963851 h -8.44386 -8.443863 z m 45.481344,7.36581 V 11.822353 h -6.38298 -6.38298 v 19.148935 19.148935 h 6.38298 6.38298 z m 19.57932,6.072279 0.63344,-13.076643 3.43421,-2.155581 3.4342,-2.155581 3.48069,1.335664 3.48068,1.335665 v 13.896572 13.89656 h 6.38298 6.38298 V 33.219592 16.318962 l -4.72874,-3.312132 -4.72872,-3.3121321 h -4.37232 -4.37232 l -4.72873,3.3121321 -4.72873,3.312132 v -2.248305 -2.248304 h -6.38298 -6.38298 v 19.148935 19.148935 h 6.28146 6.28144 z m 46.37812,-6.072279 V 11.822353 h -6.38298 -6.38298 v 19.148935 19.148935 h 6.38298 6.38298 z m 110.63829,7.872337 V 27.567027 l 2.55318,-2.553187 2.5532,-2.553186 h 4.89361 4.89362 V 16.077676 9.6946979 h -2.71807 -2.71808 l -4.72873,3.3121321 -4.72873,3.312132 v -2.248305 -2.248304 h -6.38298 -6.38298 v 19.148935 19.148935 h 6.38298 6.38298 z M 114.12518,-12.645734 v -9.574461 h -5.31915 -5.31915 v 9.574461 9.574475 h 5.31915 5.31915 z m 65.95744,0 v -9.574461 h -6.38298 -6.38298 v 9.574461 9.574475 h 6.38298 6.38298 z"
       id="path5" />
  </g>
</svg>
