<?xml version="1.0" encoding="UTF-8" standalone="no"?>
<!-- Created with Inkscape (http://www.inkscape.org/) -->

<svg
   version="1.1"
   id="svg1"
   width="425.18011"
   height="100"
   viewBox="0 0 425.18011 100"
   sodipodi:docname="lovi-food.svg"
   inkscape:version="1.4.1-rc (06eac75fbf, 2025-03-29)"
   xmlns:inkscape="http://www.inkscape.org/namespaces/inkscape"
   xmlns:sodipodi="http://sodipodi.sourceforge.net/DTD/sodipodi-0.dtd"
   xmlns="http://www.w3.org/2000/svg"
   xmlns:svg="http://www.w3.org/2000/svg">
  <defs
     id="defs1" />
  <sodipodi:namedview
     id="namedview1"
     pagecolor="#ffffff"
     bordercolor="#000000"
     borderopacity="0.25"
     inkscape:showpageshadow="2"
     inkscape:pageopacity="0.0"
     inkscape:pagecheckerboard="0"
     inkscape:deskcolor="#d1d1d1"
     showgrid="false"
     inkscape:zoom="0.73518683"
     inkscape:cx="103.37508"
     inkscape:cy="219.67205"
     inkscape:window-width="1920"
     inkscape:window-height="1011"
     inkscape:window-x="1920"
     inkscape:window-y="32"
     inkscape:window-maximized="1"
     inkscape:current-layer="g1" />
  <g
     inkscape:groupmode="layer"
     inkscape:label="Image"
     id="g1"
     transform="translate(-14.962183,-5.3219964)">
    <path
       style="fill:#666666;fill-opacity:1;stroke-width:0.767472"
       d="m 405.96318,105.13439 c -15.89572,-1.55583 -27.61522,-16.350356 -26.21188,-33.089476 1.68095,-20.050289 23.02169,-32.651055 41.39605,-24.44253 l 3.6455,1.628585 v 6.222819 6.222817 l -1.37112,-1.240842 c -1.95686,-1.770937 -7.66575,-4.126666 -11.50629,-4.747989 -10.24349,-1.657181 -19.68589,6.222204 -20.687,17.262643 l -0.39281,4.331833 1.21905,4.165926 c 1.53516,5.24624 4.85441,9.29022 9.45211,11.515937 l 3.57736,1.73177 4.29017,-0.0078 4.29017,-0.0078 3.98164,-2.027543 c 4.65577,-2.37082 7.61277,-5.921504 9.13009,-10.963233 l 1.08652,-3.610278 V 49.037167 19.995162 h 6.13979 6.13978 v 27.871815 c 0,30.355666 -0.3818,34.355328 -3.95518,41.434161 C 430.416,100.7337 419.48851,106.45821 405.96318,105.13439 Z M 61.394308,103.66502 C 52.618053,100.76472 44.641266,92.564683 42.103187,83.834004 l -1.198412,-4.122398 0.267615,-6.276637 0.267616,-6.276626 2.487596,-5.050956 c 3.102047,-6.298574 8.50458,-11.470806 15.376624,-14.72114 l 5.159975,-2.440564 h 6.907258 6.907259 l 5.159968,2.440564 c 6.874061,3.251285 12.274827,8.422558 15.376634,14.723213 l 2.48759,5.05302 -0.004,7.690871 -0.004,7.690879 -2.064904,4.414991 c -1.135709,2.428263 -3.871319,6.325012 -6.079149,8.659457 l -4.014224,4.244474 -5.045116,2.421988 -5.045101,2.422 -6.523523,0.23982 -6.523521,0.23983 z M 79.280444,92.452124 c 4.804473,-2.394169 8.142642,-6.241202 9.833836,-11.332893 L 90.368469,77.343195 89.97291,72.980894 C 88.193774,53.360189 63.325143,48.596253 54.554792,66.196055 l -1.986425,3.98624 0.0075,4.646014 0.0075,4.646027 1.789572,3.842955 c 1.906915,4.094932 6.158635,8.347732 10.031618,10.034163 1.299137,0.565692 4.280095,1.042044 6.624349,1.058565 l 4.262233,0.03003 z m 49.827016,11.198556 c -1.0726,-0.8437 -2.98657,-4.038316 -4.25325,-7.099131 -4.34143,-10.490537 -19.3302,-49.571901 -19.3302,-50.401079 v -0.828694 h 5.98789 5.98788 l 8.0185,21.476876 c 4.41017,11.812284 8.2031,21.48244 8.42872,21.489245 0.22562,0.0069 3.48208,-8.189995 7.23659,-18.215112 3.75451,-10.025119 7.44298,-19.69528 8.19659,-21.489249 l 1.37021,-3.26176 h 5.78332 c 3.18083,0 5.78332,0.325093 5.78332,0.722429 0,1.213453 -18.09272,49.351689 -19.82504,52.747317 -0.89177,1.747998 -2.54101,3.901538 -3.66498,4.785668 -2.64289,2.0789 -7.12699,2.11279 -9.71955,0.0734 z m 136.49211,0.31645 C 254.37855,100.376 246.31638,90.983054 244.39893,79.267014 l -0.7197,-4.397523 0.82533,-4.604838 c 0.45393,-2.532662 1.66044,-6.273694 2.68113,-8.313392 1.0207,-2.039706 1.85581,-3.852861 1.85581,-4.029234 0,-0.176381 -4.14436,-0.320681 -9.20968,-0.320681 h -9.20968 v 23.407929 23.407945 h -5.75604 -5.75606 V 70.785107 37.153006 l 1.27954,-3.755215 1.27952,-3.755216 3.61477,-3.614768 3.61478,-3.614767 4.07093,-1.208939 c 2.28013,-0.677126 6.87936,-1.208939 10.45517,-1.208939 h 6.38422 v 5.672163 5.672164 l -5.56418,0.307795 c -6.00331,0.332086 -10.35849,1.981109 -11.94605,4.523188 -0.54743,0.876577 -1.19672,3.294217 -1.44286,5.372534 l -0.44754,3.77877 h 9.70032 9.70031 v 5.861069 5.861069 l 3.6455,-3.391248 c 5.0217,-4.671472 8.31387,-6.549056 14.06782,-8.023149 l 4.92447,-1.261596 4.98991,0.461075 4.98991,0.461075 5.49361,2.70905 5.49361,2.709057 3.85375,4.216621 c 4.55656,4.985612 7.05032,10.919569 7.59961,18.083539 l 0.3869,5.046107 -1.30712,4.547313 c -2.51279,8.741632 -8.75657,16.003717 -17.18979,19.993262 l -4.30194,2.03515 -6.53784,0.27334 -6.53784,0.27334 z m 17.12642,-11.547472 4.05441,-2.0204 2.57292,-3.543772 c 4.86508,-6.70084 5.4775,-15.271662 1.56794,-21.942838 -7.86401,-13.418923 -26.01145,-12.712847 -32.98608,1.283407 l -1.98642,3.98624 v 4.173235 c 0,2.295282 0.40615,5.528866 0.90256,7.18572 1.17512,3.922218 5.8979,9.235764 10.02441,11.278345 l 3.27128,1.619249 4.26228,6.07e-4 4.26228,6.07e-4 z m 50.18961,11.695622 c -7.99466,-2.60732 -15.62668,-9.413252 -19.26816,-17.182588 l -2.05689,-4.388462 v -7.330811 -7.330796 l 2.89518,-5.857984 2.89517,-5.857976 3.62835,-3.199964 c 4.81551,-4.246951 9.62433,-6.600738 15.81633,-7.741664 l 5.09532,-0.938842 4.74065,0.881612 c 13.27376,2.468516 23.09381,12.298381 25.0718,25.096848 l 0.71167,4.604838 -0.72466,4.538738 c -1.59373,9.981966 -8.15792,18.610709 -17.47437,22.970401 l -5.02269,2.3504 -6.5368,0.2205 -6.53681,0.22049 z m 14.5107,-10.577778 c 4.09974,-1.228322 9.28272,-5.97076 11.36825,-10.402019 l 1.7231,-3.661147 0.0357,-4.604845 0.0357,-4.604838 -1.5481,-3.45363 c -0.85145,-1.899496 -3.11955,-4.895204 -5.04021,-6.657131 -9.42559,-8.646582 -23.78124,-5.386095 -29.27279,6.648512 l -1.57981,3.462249 0.0323,4.988575 0.0323,4.988578 1.3787,2.686155 c 2.53314,4.935398 4.9594,7.499838 9.00144,9.514071 l 4.00957,1.998026 h 3.40577 c 1.87317,0 4.76139,-0.406151 6.41825,-0.902556 z M 15.503283,103.93502 c -0.297605,-0.29761 -0.5411,-19.305827 -0.5411,-42.240487 V 19.995162 h 6.139785 6.139785 l 0.153495,39.14113 c 0.08442,21.527625 0.170762,40.436241 0.191868,42.019158 l 0.03837,2.87803 -5.790555,0.22131 c -3.184805,0.12173 -6.034049,-0.0222 -6.331652,-0.31977 z M 173.06165,74.869491 V 45.321776 h 6.13979 6.13979 v 29.547715 29.547729 h -6.13979 -6.13979 z m -3.61771,-43.556932 -8.52138,-8.636905 -0.55328,-2.949223 c -1.18853,-6.335445 3.23234,-12.8499177 9.43095,-13.8971656 l 3.0025,-0.507269 3.19935,1.2801299 3.19936,1.2801299 3.19936,-1.2801299 3.19935,-1.2801299 2.96707,0.5012827 c 7.05168,1.1913716 11.99777,9.9859459 8.96985,15.9491509 -1.34976,2.658235 -17.02904,18.177033 -18.36499,18.177033 -0.66372,0 -5.04138,-3.886607 -9.72814,-8.636904 z m 16.22623,-5.985908 5.90492,-6.180606 -0.23891,-1.993834 c -0.1314,-1.096605 -1.12122,-2.649456 -2.19961,-3.450782 l -1.96071,-1.456948 -1.87666,0.798641 c -1.03216,0.439248 -2.8264,1.559858 -3.98721,2.490243 l -2.11055,1.691602 -2.11056,-1.691602 c -1.1608,-0.930385 -2.95503,-2.050995 -3.9872,-2.490243 l -1.87666,-0.798641 -1.9607,1.456948 c -1.07839,0.801326 -2.06821,2.354177 -2.19961,3.450782 l -0.23891,1.993834 5.90491,6.180606 c 3.2477,3.399331 6.15863,6.180607 6.46873,6.180607 0.3101,0 3.22102,-2.781276 6.46873,-6.180607 z"
       id="path1" />
  </g>
</svg>
