<?xml version="1.0" encoding="UTF-8" standalone="no"?>
<!-- Created with Inkscape (http://www.inkscape.org/) -->

<svg
   version="1.1"
   id="svg1"
   width="164.85228"
   height="100"
   viewBox="0 0 164.85228 100"
   sodipodi:docname="nyla-food.svg"
   inkscape:version="1.4.1-rc (06eac75fbf, 2025-03-29)"
   xml:space="preserve"
   xmlns:inkscape="http://www.inkscape.org/namespaces/inkscape"
   xmlns:sodipodi="http://sodipodi.sourceforge.net/DTD/sodipodi-0.dtd"
   xmlns="http://www.w3.org/2000/svg"
   xmlns:svg="http://www.w3.org/2000/svg"><defs
     id="defs1" /><sodipodi:namedview
     id="namedview1"
     pagecolor="#ffffff"
     bordercolor="#000000"
     borderopacity="0.25"
     inkscape:showpageshadow="2"
     inkscape:pageopacity="0.0"
     inkscape:pagecheckerboard="0"
     inkscape:deskcolor="#d1d1d1"
     showgrid="false"
     inkscape:zoom="1.0397112"
     inkscape:cx="-20.197916"
     inkscape:cy="117.82118"
     inkscape:window-width="1920"
     inkscape:window-height="1011"
     inkscape:window-x="1920"
     inkscape:window-y="32"
     inkscape:window-maximized="1"
     inkscape:current-layer="g1" /><g
     inkscape:groupmode="layer"
     inkscape:label="Image"
     id="g1"
     transform="translate(-125.4725,9.6508371)"><path
       style="fill:#666666;fill-opacity:1;stroke-width:0.738826"
       d="m 216.34809,84.715741 v -5.541195 h 2.79092 2.7909 l 1.63095,1.142358 1.63095,1.142358 -0.0889,1.628239 c -0.0489,0.895531 0.14806,2.184354 0.43764,2.864059 l 0.52651,1.235819 -1.53478,1.534778 -1.53478,1.534778 h -3.32471 -3.32472 z m 4.97169,2.139514 c -0.24551,-0.245504 -0.88275,-0.271755 -1.41609,-0.05829 l -0.96971,0.388046 1.41609,0.05829 c 0.77884,0.03207 1.21521,-0.142541 0.96971,-0.388046 z m 5.37187,-2.139514 v -5.541195 h 4.08674 4.08673 l 0.46627,1.215073 0.46626,1.215081 -1.36949,1.001397 -1.3695,1.001405 h 0.93422 0.93421 l -0.24727,1.292945 -0.24727,1.292946 -2.5775,0.456853 -2.57751,0.45686 3.14001,0.09726 3.14001,0.09727 v 1.477651 1.477652 h -4.43295 -4.43296 z m 11.21225,4.759051 -1.71721,-0.688475 0.28344,-1.296462 0.28343,-1.296462 1.06436,0.274769 c 0.5854,0.151127 1.7293,0.416225 2.54201,0.58911 l 1.47766,0.314334 -2.5859,-1.331919 -2.58589,-1.331918 -0.22997,-1.611683 -0.22997,-1.611682 1.94959,-1.277415 1.94959,-1.277423 1.97451,0.700799 1.97451,0.700791 0.0233,1.822876 c 0.0129,1.002587 0.30444,2.633419 0.64797,3.624081 l 0.62461,1.801206 -1.65336,1.338805 c -0.90935,0.736343 -2.19835,1.317733 -2.86445,1.291977 -0.66611,-0.02578 -1.98384,-0.356646 -2.92831,-0.735309 z m 4.3031,-6.606116 c -0.60953,-0.393913 -1.37721,-0.721294 -1.70596,-0.727515 -0.32875,-0.0059 -0.39224,0.321161 -0.14111,0.727515 0.25115,0.406354 1.01883,0.733728 1.70597,0.727507 l 1.24934,-0.0113 z m 5.76611,3.555533 -0.22492,-3.924946 -1.3503,0.230262 -1.3503,0.230263 0.24206,-1.707914 0.24207,-1.707915 h 4.42284 4.42283 l 0.25908,1.345306 0.25909,1.345314 -1.50455,0.393446 -1.50455,0.393447 -0.22207,3.433022 -0.22207,3.433028 -1.62214,0.230817 -1.62215,0.230824 z m -90.986,1.742772 -1.22275,-1.35112 v -2.228499 -2.228498 l 1.35112,-1.22275 1.35113,-1.222742 h 2.62195 2.62196 l 0.86517,1.042461 0.86517,1.042462 -0.71934,0.444573 c -0.39563,0.244515 -1.56559,0.05903 -2.59989,-0.412257 l -1.88055,-0.856839 -1.16747,0.968919 -1.16747,0.968911 0.22206,1.83579 0.22205,1.835783 1.2904,0.807958 1.29039,0.807958 1.51026,-0.943178 c 0.83064,-0.518744 1.84535,-0.73607 2.25491,-0.482948 l 0.74465,0.460214 -0.86517,1.042462 -0.86517,1.042468 h -2.75033 -2.75033 z m 9.27027,-3.207901 0.21996,-4.559021 0.92353,-0.304914 0.92353,-0.304913 v 1.908631 1.908639 h 2.21648 2.21648 v -1.847065 -1.847065 h 1.10824 1.10824 v 4.802369 4.802368 h -1.15468 -1.15468 l 0.23115,-1.662358 0.23114,-1.662358 -2.40118,-0.231519 -2.40119,-0.231518 v 1.893876 1.893877 h -1.14348 -1.1435 z m 10.19411,-0.243339 v -4.802369 h 4.06354 4.06355 v 0.738826 0.738826 h -2.95531 -2.9553 v 1.108239 1.108239 h 2.58589 2.58589 v 1.108239 1.108239 h -2.58589 -2.58589 v 1.108239 1.108238 h 2.9553 2.95531 v 0.738826 0.738826 h -4.06355 -4.06354 z m 11.13547,0.711105 c -0.8419,-2.250191 -1.53073,-4.411256 -1.53073,-4.802369 0,-0.391112 0.44608,-0.711105 0.99129,-0.711105 h 0.99129 l 0.96252,3.14001 0.96253,3.140011 0.96816,-2.216478 c 0.53249,-1.219063 0.98316,-2.632068 1.00149,-3.14001 0.0183,-0.507943 0.50433,-0.923533 1.08,-0.923533 h 1.04667 l 1.08379,3.14001 1.08378,3.140011 0.43352,-1.108239 c 0.23842,-0.609532 0.76762,-2.022536 1.17597,-3.140011 l 0.74246,-2.031771 h 1.1165 1.11649 l -1.72603,4.617662 -1.72603,4.617662 -1.09333,0.214629 -1.09333,0.214629 -0.96496,-3.169932 -0.96496,-3.169933 -1.1607,3.14001 -1.16071,3.14001 h -0.90246 -0.90248 z m 13.78437,3.303549 c -0.71967,-0.429413 -1.12791,-1.072938 -0.9072,-1.430049 l 0.40128,-0.649288 2.25612,0.786488 2.25613,0.786488 0.78007,-0.780075 0.78008,-0.780082 -2.69351,-1.125417 c -1.48142,-0.618981 -2.89226,-1.64337 -3.13518,-2.276426 l -0.44169,-1.151002 0.94296,-1.136189 0.94295,-1.136188 2.59201,0.222061 2.59202,0.222069 0.30728,0.935221 0.30729,0.93522 -2.09724,-0.196394 -2.09724,-0.196395 -0.36941,0.738826 -0.36941,0.738826 1.5852,0.225977 c 0.87187,0.124293 2.18777,0.891815 2.92425,1.705609 l 1.33904,1.479625 -0.78259,1.249694 -0.7826,1.249702 -2.51106,0.181227 c -1.38109,0.09968 -3.09988,-0.170107 -3.81955,-0.599528 z m 54.13454,-8.978168 c 0,-0.724079 0.30528,-1.316507 0.6784,-1.316507 0.37311,0 1.20429,0.201803 1.84706,0.448453 0.64277,0.246657 1.16866,0.907877 1.16866,1.469377 v 1.020917 l -1.84706,-0.152863 -1.84706,-0.152871 z m 9.42003,-7.411821 c -0.71112,-0.71112 -1.29295,-1.625415 -1.29295,-2.031769 0,-0.406354 -0.71392,-0.738826 -1.5865,-0.738826 -0.87258,0 -3.48915,0.693736 -5.81461,1.541642 l -4.2281,1.541639 -3.05131,-1.55666 -3.0513,-1.556654 v -1.788446 c 0,-0.983644 0.33247,-1.993929 0.73882,-2.245063 0.40636,-0.251142 0.73883,-1.08128 0.73883,-1.844753 V 62.27338 l -1.29295,-0.0614 c -0.71112,-0.03376 -3.20462,-0.137555 -5.54112,-0.230624 -2.3365,-0.09307 -4.24822,-0.39279 -4.24825,-0.666037 -4e-5,-0.273255 -1.0806,-0.842306 -2.40125,-1.26456 -1.32065,-0.422254 -3.06613,-0.697393 -3.87884,-0.611415 l -1.47765,0.156313 0.23927,-1.389503 0.23927,-1.389509 -2.08634,0.518685 c -1.14748,0.285283 -3.12901,0.693159 -4.4034,0.906399 l -2.31707,0.387714 -1.74647,-0.968365 c -0.96056,-0.532597 -1.97921,-0.980141 -2.26365,-0.994541 -0.28445,-0.01441 -0.84069,-0.358655 -1.2361,-0.76501 -0.3954,-0.406354 -0.84659,-1.736241 -1.00264,-2.955303 l -0.28373,-2.216478 -0.80439,1.87743 c -0.44242,1.032583 -1.30552,2.293323 -1.918,2.801636 -0.61248,0.508312 -2.08226,1.202018 -3.26618,1.54156 l -2.15259,0.617356 -1.76602,-1.834897 c -0.97131,-1.009184 -1.83852,-2.328838 -1.92712,-2.932562 -0.0886,-0.603725 -0.3047,-1.24128 -0.48021,-1.416788 -0.17551,-0.175508 -0.7893,-0.13867 -1.36399,0.08185 -0.57469,0.220532 -1.43897,1.142653 -1.92062,2.049163 -0.48165,0.906517 -1.10015,2.248831 -1.37444,2.982936 l -0.4987,1.334733 -0.98748,-0.378929 c -0.54312,-0.208415 -1.14304,-0.12724 -1.33316,0.180377 -0.19012,0.307625 -1.7148,0.640104 -3.38817,0.738841 l -3.0425,0.17952 0.15632,-0.955812 c 0.086,-0.525697 -0.0979,-1.537637 -0.40866,-2.248757 -0.31075,-0.71112 -1.08982,-1.292946 -1.73126,-1.292946 -0.64146,0 -1.90917,0.697903 -2.81713,1.550892 l -1.65085,1.550892 -2.64502,0.356446 -2.64503,0.356447 v -0.799099 c 0,-0.439506 -0.471,-0.7991 -1.04666,-0.7991 -0.57567,0 -1.18116,-0.403465 -1.34554,-0.896595 l -0.29887,-0.896602 -2.87571,3.851906 c -1.58164,2.118547 -3.30345,3.851906 -3.82624,3.851906 -0.5228,0 -0.95054,0.306894 -0.95054,0.681988 0,0.375095 -0.91456,1.621864 -2.03237,2.770598 -1.11781,1.148733 -2.97537,3.351166 -4.12791,4.894293 l -2.09553,2.805689 -4.09615,-0.378345 c -2.25288,-0.208083 -4.28525,-0.567426 -4.51636,-0.798538 -0.23111,-0.23112 -0.42021,-1.548887 -0.42021,-2.928386 v -2.508174 l -1.37161,0.734068 c -0.75439,0.403739 -1.55151,1.20286 -1.77138,1.775827 -0.21987,0.57296 -1.41582,1.548631 -2.65767,2.168142 -1.24185,0.61952 -2.53931,1.126399 -2.88322,1.126399 -0.34393,0 -0.62532,-0.488275 -0.62532,-1.085054 v -1.085053 l -0.92354,0.325424 c -0.50794,0.17898 -1.52772,-0.133809 -2.26617,-0.695103 L 134.239,68.9648 l 0.90691,-3.026977 c 0.4988,-1.664834 0.69544,-3.238444 0.43697,-3.496908 -0.25846,-0.258463 -0.954,-0.06819 -1.54563,0.422815 l -1.0757,0.892753 -2.63629,-0.727913 c -1.44995,-0.400355 -2.66485,-0.505357 -2.69978,-0.233351 -0.0349,0.272014 -0.34617,-0.447861 -0.69165,-1.599721 -0.34548,-1.151859 -0.44757,-2.564863 -0.22686,-3.14001 0.2207,-0.575146 0.69818,-1.045727 1.06105,-1.045727 0.36289,0 0.66198,-0.581825 0.66465,-1.292945 0.003,-0.71112 0.68121,-2.290361 1.50785,-3.509423 0.82664,-1.219063 2.15434,-3.611241 2.95044,-5.315949 0.7961,-1.704715 1.44745,-3.335688 1.44745,-3.624392 0,-0.288704 0.88827,-1.71995 1.97392,-3.18055 1.08566,-1.460592 1.69446,-2.405543 1.3529,-2.099891 l -0.62101,0.55573 -1.3529,-1.22436 c -0.7441,-0.673403 -1.35291,-1.937519 -1.35291,-2.809149 0,-0.871637 0.41559,-2.021125 0.92353,-2.554424 l 0.92354,-0.969635 -1.59953,0.482305 c -0.87974,0.265261 -2.49677,0.257104 -3.59341,-0.0181 l -1.99387,-0.500436 0.47598,-4.207134 0.47598,-4.207141 -2.23907,0.328623 c -1.23148,0.180746 -2.23906,0.140303 -2.23906,-0.08988 0,-0.230182 0.38584,-1.265329 0.85742,-2.300335 0.47158,-1.035007 1.13652,-1.881827 1.47765,-1.881827 0.34113,0 0.62023,-0.803473 0.62023,-1.785498 0,-0.982025 0.27021,-1.896322 0.60046,-2.031771 0.33026,-0.135449 2.05461,-2.241103 3.83191,-4.679229 1.7773,-2.4381255 4.97603,-6.1354692 7.10829,-8.2163133 l 3.87685,-3.7833504 2.07649,-0.396949 c 1.14206,-0.2183157 2.34125,-0.2333064 2.66485,-0.033321 l 0.58839,0.3636427 -0.44926,1.41547231 -0.44925,1.41547967 h 2.49447 c 1.37196,0 3.10351,-0.4453495 3.8479,-0.98965734 l 1.35343,-0.98965734 1.73732,0.80495085 c 0.95552,0.44271928 1.73991,1.07392045 1.74308,1.40266845 0.003,0.328748 0.28382,0.425874 0.62367,0.2158406 0.33985,-0.2100408 1.77419,0.7087483 3.18742,2.0417529 l 2.56951,2.4236446 1.61495,-0.7206138 c 0.88823,-0.3963359 1.61495,-1.1909136 1.61495,-1.765735 V 2.2370865 l 1.66236,0.5246329 c 0.9143,0.2885485 2.40468,1.2252542 3.31196,2.0815608 l 1.64959,1.5569206 0.0496,2.2164778 0.0496,2.2164774 1.52283,-3.1400098 1.52282,-3.1400103 h 1.02624 1.02624 v 1.108239 1.1082389 h 1.47765 c 0.81271,0 1.47765,0.3080978 1.47765,0.6846552 0,0.3765574 0.58183,0.796846 1.29294,0.933972 l 1.29295,0.2493242 1.51739,-1.7633484 1.5174,-1.7633411 2.50438,0.5500559 2.50438,0.5500559 -1.34197,0.9812791 -1.34197,0.9812716 1.93786,0.4863765 c 1.06582,0.2674994 1.93785,0.876521 1.93785,1.3533663 v 0.867005 l 2.03178,0.10628 c 1.11747,0.05844 1.61618,-0.06295 1.10823,-0.269834 -0.50794,-0.206871 -0.91308,-0.7640049 -0.90031,-1.2380873 0.0128,-0.4740824 0.85341,-1.4664513 1.8681,-2.2052624 l 1.84488,-1.3433038 2.55041,0.8417148 c 1.40273,0.462941 2.90272,0.6239755 3.3333,0.3578578 l 0.78289,-0.4838424 -0.46323,1.8456389 -0.46323,1.8456464 2.47624,-0.558486 2.47625,-0.5584859 2.33349,-2.3334931 c 1.28342,-1.2834219 2.79508,-2.3334931 3.35925,-2.3334931 0.56417,0 1.68524,0.6144077 2.49128,1.365343 l 1.46551,1.3653356 1.4444,-0.1895828 c 0.79441,-0.1042705 2.17154,-0.4195127 3.06028,-0.7005325 l 1.61588,-0.5109425 0.76055,-2.1817014 0.76055,-2.1817086 1.68711,0.9253203 c 0.92791,0.5089255 2.43517,0.8352649 3.34946,0.7251946 l 1.66236,-0.2001257 v 0.7917037 c 0,0.4354344 -0.0284,1.0038797 -0.0631,1.2632151 -0.0347,0.2593353 0.38088,0.7529523 0.92353,1.0969275 0.54265,0.3439752 1.23599,0.6304993 1.54075,0.6367202 0.30477,0.00591 0.55412,-0.5172151 0.55412,-1.1632002 0,-0.6459851 0.74806,-1.7905743 1.66236,-2.5435266 l 1.66236,-1.3690075 1.30267,1.6199941 1.30267,1.6199867 -0.48788,-1.4776519 -0.48787,-1.4776519 0.97775,0.9059558 0.97775,0.9059557 1.11638,-0.9059557 1.11639,-0.9059558 -0.46383,1.2389298 -0.46382,1.2389299 1.08719,0.9022838 1.08719,0.9022912 0.88263,-2.3383694 0.88264,-2.3383693 2.41921,-0.87479946 c 1.33056,-0.48114562 2.41921,-1.11491051 2.41921,-1.40837217 0,-0.29346907 0.9143,-1.50809147 2.03177,-2.69916757 1.11747,-1.1910761 2.788,-3.0826552 3.71228,-4.2035132 l 1.68051,-2.0379258 3.48146,0.8766465 c 1.9148,0.4821504 3.73014,1.2676259 4.03408,1.7454985 0.30394,0.4778726 0.55771,1.105254 0.56393,1.3941941 0.006,0.2889326 -0.63198,1.124663 -1.41824,1.857172 -0.78625,0.7325089 -1.77544,2.2415831 -2.19819,3.35349395 l -0.76863,2.02166415 h 0.72053 c 0.3963,0 0.72054,-0.310063 0.72054,-0.68903641 0,-0.37897338 0.65775,-0.89779912 1.46168,-1.15295266 l 1.46167,-0.46391619 2.0402,1.89177856 c 1.12211,1.0404812 2.25601,1.8917786 2.51977,1.8917786 0.26377,0 0.43341,-0.5690807 0.37697,-1.2646336 l -0.10262,-1.26464093 1.2431,-0.25758428 1.2431,-0.25759166 0.84118,1.57177087 0.84119,1.571771 -1.16075,1.7715273 c -0.63841,0.9743415 -1.16075,1.9494587 -1.16075,2.1669322 0,0.2174734 0.458,0.3954048 1.01777,0.3954048 0.55978,0 1.43507,0.502808 1.9451,1.1173487 l 0.92731,1.117356 1.01021,-0.8384049 1.01021,-0.8384049 v 1.2967503 c 0,0.7132181 0.73268,1.9322001 1.62817,2.7088541 l 1.62817,1.412095 -1.39045,2.581909 -1.39045,2.581908 -0.97654,-0.374732 c -0.5371,-0.20611 -0.97655,-0.07322 -0.97655,0.295301 0,0.368519 -0.96561,1.72725 -2.1458,3.019397 l -2.14581,2.349356 -0.91725,-0.566894 -0.91725,-0.566886 0.47783,1.903821 0.47783,1.903829 -1.1089,1.108904 c -0.6099,0.609893 -1.10891,1.645387 -1.10891,2.301095 0,0.655708 0.4101,1.63121 0.91134,2.167782 l 0.91133,0.975583 1.1625,-0.725993 1.1625,-0.725992 2.44641,2.234446 2.4464,2.234446 -0.5003,0.809495 -0.50029,0.809494 h 0.7402 c 0.4071,0 1.94401,0.710278 3.41535,1.578384 l 2.67516,1.578383 -0.78586,0.78586 c -0.43223,0.432228 -0.78587,1.384308 -0.78587,2.115746 0,0.731438 -0.2969,1.329887 -0.65978,1.329887 -0.36287,0 -0.86941,-0.546288 -1.12563,-1.21398 -0.25622,-0.667692 -0.66673,-1.0131 -0.91226,-0.767574 -0.24553,0.245534 -0.5464,2.204827 -0.6686,4.353998 -0.1222,2.14917 -0.45097,4.655637 -0.7306,5.569934 l -0.50842,1.662359 h 1.1944 1.19441 v 1.108239 1.108239 h -1.08224 c -0.59523,0 -1.45335,0.693417 -1.90692,1.540932 -0.45358,0.847515 -1.00877,1.356854 -1.23374,1.131867 -0.22499,-0.224988 -1.34856,0.773129 -2.49683,2.218036 -1.14827,1.444907 -2.307,3.317875 -2.57496,4.162154 -0.26797,0.844279 -1.44566,2.341531 -2.61709,3.327221 -1.17143,0.985698 -1.95732,2.071363 -1.74643,2.412605 0.2109,0.341234 0.008,0.852228 -0.45003,1.135546 l -0.83348,0.515124 -0.64491,-1.018191 -0.64491,-1.018183 -0.0113,1.2632 -0.0113,1.2632 -2.03177,-0.154961 c -1.11747,-0.08523 -2.61359,-0.736787 -3.32471,-1.447907 z M 137.29372,69.939224 c 0,-0.203177 -0.16624,-0.369413 -0.36942,-0.369413 -0.20318,0 -0.36941,0.166236 -0.36941,0.369413 0,0.203177 0.16623,0.369413 0.36941,0.369413 0.20318,0 0.36942,-0.166236 0.36942,-0.369413 z M 283.58125,55.857926 v -1.151845 l -0.73883,0.456617 c -0.40635,0.251142 -0.73882,0.769472 -0.73882,1.151844 0,0.382372 0.33247,0.695221 0.73882,0.695221 0.40636,0 0.73883,-0.518323 0.73883,-1.151837 z m -77.57672,-1.434054 c 0,-0.203177 -0.16624,-0.369413 -0.36942,-0.369413 -0.20317,0 -0.36941,0.166236 -0.36941,0.369413 0,0.203177 0.16624,0.369413 0.36941,0.369413 0.20318,0 0.36942,-0.166236 0.36942,-0.369413 z M 170.02335,45.35222 c 0.65403,-0.72269 2.51589,-5.065147 4.13748,-9.649894 l 2.94836,-8.335915 -1.93206,0.229864 -1.93204,0.229863 -1.21824,3.655475 -1.21823,3.655467 -0.42842,-0.700164 c -0.23562,-0.385091 -0.80739,-2.113175 -1.27058,-3.84018 l -0.84216,-3.140011 h -2.92683 c -1.60976,0 -2.92683,0.09321 -2.92683,0.207138 0,0.113926 1.16365,2.96626 2.58589,6.33852 1.42224,3.37226 2.58589,6.770003 2.58589,7.550535 v 1.419152 h -2.21648 -2.21648 v 1.847065 1.847065 h 2.8408 2.8408 z m 26.56115,-3.912327 3.50942,0.101123 v -5.423285 -5.423278 l -0.99752,-1.364191 -0.99752,-1.36419 -3.98955,-0.327293 -3.98956,-0.327292 -2.03177,1.603895 c -1.11748,0.882143 -2.03177,1.912237 -2.03177,2.289097 v 0.685202 h 2.43812 c 1.34097,0 2.81475,-0.376617 3.27506,-0.836927 l 0.83693,-0.836928 1.1579,0.44433 c 0.63685,0.244374 1.1579,0.750234 1.1579,1.124117 0,0.373882 -1.19326,0.903643 -2.6517,1.177252 -1.45843,0.273602 -3.44687,0.859765 -4.41876,1.30258 -0.97188,0.442823 -1.96208,1.419617 -2.20045,2.170656 -0.23837,0.751039 -0.21552,2.052 0.0508,2.891026 0.26629,0.839018 1.20299,1.826924 2.08155,2.195332 l 1.59739,0.669842 1.84706,-0.426096 c 1.01589,-0.234348 3.42631,-0.380584 5.35649,-0.324972 z m -5.35649,-3.931633 c 0,-0.623495 0.64309,-1.4778 1.42908,-1.89845 0.78599,-0.420651 1.6403,-0.764825 1.89845,-0.764825 0.25815,0 0.36313,0.748061 0.23328,1.662358 l -0.23609,1.662358 -1.66236,0.236092 -1.66236,0.236099 z m 23.80355,2.424287 c 0.69815,-0.824381 1.47312,-2.585048 1.72218,-3.912607 l 0.45281,-2.413737 -1.11936,-2.679028 -1.11937,-2.679027 -1.95024,-0.489479 -1.95023,-0.48948 -1.79259,0.816757 -1.79258,0.816758 V 25.963233 23.02377 h -2.58589 -2.58589 v 9.235324 9.235324 h 1.84706 c 1.01589,0 1.84707,-0.312752 1.84707,-0.695006 v -0.695014 l 2.03177,1.078073 2.03177,1.07808 1.84706,-0.41457 c 1.01589,-0.228016 2.41829,-1.089059 3.11643,-1.913434 z m -7.23426,-2.376729 c -0.23058,-0.600879 -0.31269,-2.204693 -0.18246,-3.56403 l 0.23675,-2.47152 1.70518,-0.2417 1.70516,-0.241699 -0.22751,3.559774 -0.22752,3.559767 -1.29518,0.245962 -1.29518,0.245956 z m 21.44451,3.631736 c 1.37648,-0.575131 2.86192,-1.71692 3.30098,-2.53732 0.43907,-0.820393 0.7983,-2.532755 0.7983,-3.805249 0,-1.272488 -0.34233,-2.953265 -0.76073,-3.735054 -0.4184,-0.781788 -1.73178,-1.923577 -2.91861,-2.53732 -1.18684,-0.613735 -3.14631,-1.115886 -4.35437,-1.115886 h -2.19648 l -2.21885,1.867043 -2.21884,1.867035 -0.47666,2.170198 -0.47665,2.17019 0.9773,2.058081 0.97731,2.058081 2.58504,1.2918 c 1.42177,0.710485 3.01131,1.292311 3.5323,1.292946 0.521,6.28e-4 2.07348,-0.469413 3.44996,-1.044545 z m -5.01291,-3.140985 c -0.2709,-0.270906 -0.49255,-1.726319 -0.49255,-3.234255 v -2.741702 l 1.02997,-0.854792 1.02996,-0.854792 1.18652,1.18651 c 0.65258,0.652583 1.18651,1.966755 1.18651,2.920379 0,0.953633 -0.20181,2.259766 -0.44846,2.902537 -0.24665,0.642764 -1.02242,1.16866 -1.72393,1.16866 -0.70151,0 -1.49711,-0.221647 -1.76802,-0.492545 z m 40.82758,1.382328 1.79294,-1.998022 -2.0976,-0.245356 -2.0976,-0.24535 -1.67727,0.897644 -1.67727,0.897652 -1.15808,-0.444404 c -0.63694,-0.244418 -1.15808,-0.953536 -1.15808,-1.57582 v -1.13143 h 4.89472 4.89472 l -0.47972,-2.398614 c -0.26385,-1.31924 -1.07334,-2.992245 -1.79888,-3.717779 -0.72553,-0.725535 -2.54055,-1.517356 -4.03338,-1.75961 l -2.71423,-0.440459 -2.17684,0.901678 -2.17684,0.901678 -1.21118,2.552363 -1.21117,2.552356 0.45884,2.08906 c 0.25235,1.148985 1.18965,2.762573 2.08286,3.585744 0.89322,0.82317 2.28898,1.667574 3.10168,1.87644 0.81271,0.208874 2.64131,0.226879 4.06355,0.03997 l 2.58589,-0.339757 z m -8.07296,-7.192987 c 0,-0.622284 0.50294,-1.324427 1.11765,-1.560312 l 1.11764,-0.428881 1.0907,0.905195 c 0.59988,0.497865 0.9085,1.200001 0.68582,1.560311 -0.22269,0.360311 -1.21644,0.65511 -2.20835,0.65511 h -1.80346 z m -107.24807,3.717314 c -0.1539,-3.047657 -0.22465,-5.541195 -0.15722,-5.541195 0.0675,0 1.67674,2.493538 3.57626,5.541195 l 3.45367,5.541194 h 2.16399 2.164 V 32.259094 23.02377 h -2.32332 -2.32332 l 0.44846,4.802368 c 0.24665,2.641303 0.2116,4.796562 -0.0779,4.789462 -0.28948,-0.0074 -1.80946,-2.168166 -3.37776,-4.802369 l -2.85143,-4.789461 h -2.50505 -2.50506 v 9.235324 9.235324 h 2.29723 2.29723 z m 33.36547,-3.69413 V 23.02377 h -2.58589 -2.58589 v 9.235324 9.235324 h 2.58589 2.58589 z m 57.77938,4.255889 0.21846,-4.979436 1.29294,-0.246517 1.29295,-0.246516 v 5.225952 5.225952 h 2.58589 2.58589 v -6.254021 -6.254029 l -1.42907,-0.764817 c -0.786,-0.420651 -2.21563,-0.764826 -3.17695,-0.764826 -0.96133,0 -2.14685,0.398966 -2.63447,0.886591 l -0.88659,0.886592 v -0.886592 -0.886591 h -2.58589 -2.5859 v 7.018847 7.018846 h 2.55214 2.55213 z m 29.23082,-8.293721 c -0.12011,-0.623672 -0.70798,-1.13395 -1.30639,-1.13395 h -1.088 l -0.24082,1.250493 -0.24082,1.2505 1.5472,-0.11655 1.5472,-0.11655 z m -60.04305,-16.279881 0.45662,-0.738826 h -0.73882 c -0.40636,0 -0.94431,0.332471 -1.19545,0.738826 l -0.45662,0.738826 h 0.73883 c 0.40635,0 0.94431,-0.332472 1.19544,-0.738826 z m -36.09692,-1.847065 c 0.60953,-0.6095317 0.79273,-1.1082392 0.40711,-1.1082392 -0.38563,0 -1.11503,0.4987075 -1.6209,1.1082392 -0.50587,0.609531 -0.68906,1.108239 -0.4071,1.108239 0.28196,0 1.01136,-0.498708 1.62089,-1.108239 z m 103.69949,-0.07905 c 0,-0.1596975 -0.4987,-0.2903662 -1.10824,-0.2903662 -0.60953,0 -1.10823,0.3220392 -1.10823,0.7156412 v 0.715635 l 1.10823,-0.425269 c 0.60954,-0.233897 1.10824,-0.555937 1.10824,-0.715641 z M 264.1255,8.4935311 c -0.2709,-0.2709053 -0.7142,-0.2709053 -0.9851,0 -0.2709,0.2708979 -0.0493,0.4925457 0.49255,0.4925457 0.54181,0 0.76346,-0.2216478 0.49255,-0.4925457 z M 163.89145,7.8778379 c 0,-0.2031771 -0.16624,-0.3694129 -0.36941,-0.3694129 -0.20318,0 -0.36942,0.1662358 -0.36942,0.3694129 0,0.2031772 0.16624,0.369413 0.36942,0.369413 0.20317,0 0.36941,-0.1662358 0.36941,-0.369413 z m 83.97988,-0.8619586 c -0.2709,-0.2709054 -0.49255,-0.04928 -0.49255,0.4925457 0,0.5418106 0.22165,0.7634583 0.49255,0.492553 0.27091,-0.2709053 0.27091,-0.7142008 0,-0.9850987 z m 5.78747,-4.679236 c 0.25114,-0.4063543 0.29039,-0.7388259 0.0872,-0.7388259 -0.20318,0 -0.57489,0.3324716 -0.82604,0.7388259 -0.25113,0.4063543 -0.29038,0.7388259 -0.0872,0.7388259 0.20318,0 0.5749,-0.3324716 0.82603,-0.7388259 z m 12.92945,0.369413 c 0,-0.2031772 -0.16623,-0.369413 -0.36941,-0.369413 -0.20318,0 -0.36941,0.1662358 -0.36941,0.369413 0,0.2031771 0.16623,0.3694129 0.36941,0.3694129 0.20318,0 0.36941,-0.1662358 0.36941,-0.3694129 z"
       id="path1" /></g></svg>
