<?xml version="1.0" encoding="UTF-8" standalone="no"?>
<!-- Created with Inkscape (http://www.inkscape.org/) -->

<svg
   width="106.2649mm"
   height="26.45833mm"
   viewBox="0 0 106.2649 26.45833"
   version="1.1"
   id="svg1"
   xml:space="preserve"
   inkscape:version="1.4.1-rc (06eac75fbf, 2025-03-29)"
   sodipodi:docname="tropi-clean.svg"
   xmlns:inkscape="http://www.inkscape.org/namespaces/inkscape"
   xmlns:sodipodi="http://sodipodi.sourceforge.net/DTD/sodipodi-0.dtd"
   xmlns="http://www.w3.org/2000/svg"
   xmlns:svg="http://www.w3.org/2000/svg"><sodipodi:namedview
     id="namedview1"
     pagecolor="#ffffff"
     bordercolor="#000000"
     borderopacity="0.25"
     inkscape:showpageshadow="2"
     inkscape:pageopacity="0.0"
     inkscape:pagecheckerboard="0"
     inkscape:deskcolor="#d1d1d1"
     inkscape:document-units="mm"
     inkscape:zoom="0.71535494"
     inkscape:cx="201.29867"
     inkscape:cy="49.625715"
     inkscape:window-width="1920"
     inkscape:window-height="1011"
     inkscape:window-x="1920"
     inkscape:window-y="32"
     inkscape:window-maximized="1"
     inkscape:current-layer="layer1" /><defs
     id="defs1" /><g
     inkscape:label="Layer 1"
     inkscape:groupmode="layer"
     id="layer1"
     transform="translate(-51.907123,-135.20208)"><path
       style="fill:#666666;fill-opacity:1;stroke-width:0.708432"
       d="m 59.775573,159.25946 c -0.40844,-1.26632 -0.945674,-3.61706 -1.193845,-5.22387 l -0.451215,-2.92146 1.12624,-3.87412 1.126237,-3.87412 1.55219,-1.97329 1.552192,-1.97329 -1.716633,0.9102 c -0.944149,0.50063 -2.276555,1.54887 -2.960887,2.32945 l -1.244256,1.41925 -0.500011,-0.50002 -0.500013,-0.50001 0.92077,-1.47439 0.920772,-1.47439 -3.249998,0.48736 -3.249993,0.48736 v -0.76225 c 0,-0.41923 1.007555,-1.37498 2.239017,-2.12387 l 2.239007,-1.36163 4.903871,-0.82714 4.903865,-0.82715 3.088484,1.1795 c 1.698667,0.64873 3.926616,1.83878 4.951003,2.64457 l 1.862519,1.46506 -0.61042,0.61041 -0.610421,0.61042 -2.446267,-0.70158 c -1.345448,-0.38586 -2.657624,-0.70159 -2.915946,-0.70159 h -0.469678 l 0.370518,1.41688 0.370516,1.41687 h 1.592919 1.59292 l 1.866619,1.46828 1.866622,1.46828 v 2.90363 2.90365 l -1.11911,1.23661 -1.119119,1.23659 0.851458,1.65291 c 0.468302,0.90911 1.66914,2.5296 2.668527,3.60111 l 1.817057,1.94818 h -2.134351 -2.134346 l -1.493164,-1.59397 c -0.821244,-0.87669 -1.906604,-2.55036 -2.411915,-3.71926 l -0.918748,-2.1253 -0.228113,3.71927 -0.228116,3.71926 h -1.734059 -1.734061 v -8.3595 -8.3595 l 0.774063,-0.77407 0.774062,-0.77406 -0.822023,-1.53597 -0.822029,-1.53597 -0.837572,0.26693 -0.837581,0.26692 -1.25081,3.49539 -1.250808,3.4954 0.300409,3.58679 0.300405,3.5868 1.267259,2.78909 c 0.697,1.53401 1.390335,3.0282 1.540764,3.32044 l 0.273504,0.53131 h -2.837832 -2.837828 z m 13.247433,-10.31273 -0.217116,-2.60438 -1.239757,-0.23495 -1.239758,-0.23495 v 3.61904 3.61904 l 1.456873,-0.77969 1.456864,-0.7797 z m 6.600347,10.79419 -1.432351,-1.82093 -0.451586,-3.01135 -0.451574,-3.01135 0.769675,-2.78336 c 0.423326,-1.53086 1.008859,-3.13413 1.301194,-3.56285 0.292328,-0.42873 1.277723,-1.1727 2.189757,-1.6533 l 1.658244,-0.87381 1.96632,0.81447 1.966319,0.81448 0.980244,1.83161 0.980252,1.83161 -0.02968,4.32046 -0.02968,4.32045 -1.228259,2.30241 -1.228254,2.3024 h -2.764119 -2.764123 z m 5.686696,-4.20836 0.482351,-2.8261 -0.59262,-2.74224 c -0.325935,-1.50824 -0.907104,-3.05674 -1.291485,-3.44113 l -0.698868,-0.69887 -0.857572,1.60239 -0.857581,1.6024 -0.03549,3.25559 c -0.01947,1.79058 0.204717,3.99101 0.498256,4.88986 l 0.533717,1.63426 1.168455,-0.22504 1.168453,-0.22502 z m 4.852446,-2.48943 v -8.51872 l 1.920541,-0.73018 1.920533,-0.73019 1.798738,0.44869 c 0.989297,0.24679 2.356625,0.95148 3.03849,1.56595 l 1.239763,1.11726 v 2.61414 2.61412 l -1.295544,1.17246 -1.295541,1.17244 h -1.538192 c -0.846002,0 -1.538191,-0.18217 -1.538191,-0.40481 0,-0.22265 0.478192,-0.88301 1.062651,-1.46747 l 1.062647,-1.06265 v -1.99891 -1.99889 l -1.120591,-0.43001 c -0.616323,-0.23651 -1.253914,-0.43001 -1.416865,-0.43001 -0.162954,0 -0.296274,3.50674 -0.296274,7.79275 v 7.79276 h -1.771081 -1.771084 z m 11.098785,8.04645 -0.47229,-0.47229 v -8.30732 -8.30733 l 1.12059,-0.43001 c 0.61633,-0.23651 1.41331,-0.43001 1.77108,-0.43001 h 0.6505 v 9.20962 9.20962 h -1.29881 c -0.71433,0 -1.51131,-0.21252 -1.77107,-0.47228 z m 7.12535,-0.76876 c -0.61772,-0.68258 -1.46412,-2.13792 -1.88087,-3.23407 -0.41677,-1.09617 -0.75774,-3.32925 -0.75774,-4.96242 0,-1.63317 0.31117,-4.05442 0.69152,-5.38056 0.38032,-1.32614 1.39227,-3.15711 2.24878,-4.06882 l 1.55727,-1.65763 1.82471,0.0108 c 1.00358,0.006 2.26965,0.29259 2.81347,0.63694 l 0.98877,0.62608 -0.43522,1.13414 -0.43521,1.13416 h -1.82947 -1.82945 l -1.02651,2.45676 c -0.56457,1.35122 -1.0265,3.43362 -1.0265,4.62757 0,1.19393 0.47176,3.29987 1.04835,4.67984 l 1.04834,2.50905 1.33116,-0.4225 1.33114,-0.42249 0.86944,1.04761 0.86944,1.04761 -0.45701,0.73946 -0.45702,0.73947 h -2.68211 -2.68213 z m 8.14405,-7.82211 0.19805,-9.00189 1.59398,-0.22637 1.59397,-0.22638 v 7.84204 7.84203 h 2.83372 2.83373 v -7.36276 -7.36274 l 1.1206,-0.43001 c 0.61632,-0.23651 2.51027,-0.43001 4.20879,-0.43001 h 3.0882 l 0.39832,0.6445 c 0.21908,0.35447 0.20378,1.15145 -0.034,1.77108 l -0.43231,1.12657 H 131.53 129.12628 v 2.12531 2.1253 h 2.1253 2.1253 v 1.41686 1.41686 h -2.1253 -2.1253 v 2.47953 2.47951 h 2.42925 2.42924 l 1.0972,-3.77422 c 0.60346,-2.07584 1.47272,-5.40108 1.9317,-7.38944 l 0.83449,-3.61522 1.74433,-0.43781 c 0.95939,-0.24078 1.87667,-0.30547 2.03839,-0.14374 0.16171,0.16171 1.20961,3.70684 2.32865,7.87802 1.11901,4.1712 2.22427,7.77367 2.45609,8.00549 l 0.42149,0.4215 v -7.8631 -7.8631 l 1.48817,-0.47233 1.48818,-0.47232 0.56373,0.6017 c 0.31005,0.33093 1.28647,2.35507 2.1698,4.49807 0.88333,2.14302 1.87272,4.19924 2.19868,4.5694 l 0.59263,0.67301 v -4.67071 -4.6707 l 1.12059,-0.43001 c 0.61631,-0.23651 1.25391,-0.43001 1.41686,-0.43001 0.16295,0 0.29627,4.16649 0.29627,9.2589 v 9.25889 l -1.59397,-0.22638 -1.59397,-0.22637 -2.26585,-4.60483 -2.26583,-4.60481 -0.0366,4.77509 -0.0366,4.77509 -3.66289,-0.17027 -3.66287,-0.17027 -1.11905,-3.49097 -1.11903,-3.49094 -0.88517,-0.28723 -0.88517,-0.28725 -0.31962,0.94446 c -0.17578,0.51945 -0.66478,2.29323 -1.08667,3.94173 l -0.76706,2.99728 -10.26956,-0.0171 -10.26956,-0.0171 z m 23.69441,-2.03563 -0.47229,-0.47228 v 0.94458 0.94457 l 0.47229,-0.47229 0.47228,-0.47228 z"
       id="path1" /></g></svg>
